<svg width="214" height="34" xmlns="http://www.w3.org/2000/svg" xmlns:xlink="http://www.w3.org/1999/xlink"><defs><circle id="a" cx="17" cy="17" r="17"/></defs><g fill="none" fill-rule="evenodd"><path d="M0-11h214v56H0z"/><path d="M61.6 29h-1.507l-3.442-9.758a60.095 60.095 0 01-.967-2.955h-.057c-.34 1.12-.682 2.067-.994 2.955L51.048 29h-1.535L43 10h2.248l4.181 12.628c.34 1.062.653 2.008.91 2.956h.054c.257-.919.625-1.865.996-2.898l3.245-8.955L53.354 10h2.19l4.293 12.512c.369 1.092.74 2.009.997 2.928h.056c.227-.949.483-1.807.824-2.84L65.81 10H68l-6.4 19zm16.531-1.67C77.097 28.405 75.647 29 73.944 29c-1.646 0-3.07-.567-4.101-1.64-1.2-1.244-1.843-3.14-1.843-5.347 0-2.205.671-4.044 1.843-5.288 1.06-1.102 2.482-1.726 4.13-1.726 1.702 0 3.124.623 4.187 1.726C79.329 17.97 80 19.81 80 22.014c0 2.206-.67 4.073-1.869 5.316m-4.159-10.578c-2.484 0-3.906 2.037-3.906 5.204 0 3.166 1.478 5.261 3.935 5.261 2.456 0 3.934-2.095 3.934-5.26 0-3.168-1.42-5.205-3.963-5.205M85.275 29C83.685 29 83 27.915 83 26.454V8h2v17.49c0 1.316.303 1.579 1.07 1.579.136 0 .354 0 .684-.085L87 28.532c-.601.323-1.067.468-1.725.468m8.013 0c-2.019 0-3.002-1.176-3.002-2.97v-9.415H88v-1.823h2.286v-3.058l2.17-.734v3.794h4.308l-.773 1.822h-3.535v8.767c0 1.177.445 1.705 1.368 1.705 1.009 0 1.93-.558 2.495-1L97 27.617C95.961 28.381 94.594 29 93.288 29m6.965-6.621c0 2.547 1.501 4.81 4.53 4.81 1.156 0 2.428-.453 3.235-.963l.636 1.415c-.983.792-2.715 1.359-4.302 1.359C100.08 29 98 25.577 98 21.758c0-3.875 2.252-6.758 5.542-6.758 3.522 0 5.458 2.743 5.458 6.9v.48h-8.747v-.001zm3.32-5.627c-2.023 0-3.293 1.753-3.293 3.874h6.438c0-1.865-1.068-3.874-3.145-3.874zm14.569.703a3.224 3.224 0 00-1.245-.232c-.774 0-2.046.694-2.876 1.646V29H112V15.348h1.66l.278 1.558c1.798-1.703 2.795-1.906 3.733-1.906.581 0 1.08.231 1.329.405l-.858 2.05zM123.949 29c-1.918 0-3.074-.509-3.949-1.019l.789-1.612c.622.394 1.777.961 3.245.961 1.635 0 2.821-.735 2.821-1.98 0-3.28-6.066-2.12-6.066-6.815 0-1.924 1.385-3.535 4.43-3.535 1.411 0 2.481.308 3.356.706v1.811c-.929-.394-1.888-.79-3.272-.79-1.354 0-2.482.48-2.482 1.695 0 2.998 6.179 2.236 6.179 6.617-.001 2.803-2.314 3.961-5.051 3.961m24.147 0l-7.88-8.592h-.03V29H138V10h2.186v8.736h.03l7.34-8.677h2.726l-8.12 9.34L151 29zm7.179 0c-1.59 0-2.275-1.085-2.275-2.546V8h1.999v17.49c0 1.316.301 1.579 1.07 1.579.136 0 .355 0 .684-.085l.247 1.548c-.602.323-1.07.468-1.725.468m13.015-.29l-.558-1.42c-1.03.869-2.647 1.71-4.5 1.71-1.88 0-4.232-.956-4.232-4.812V15h2.143v8.985c0 2.29.971 3.188 2.709 3.188 1.763 0 3.116-1.102 3.703-1.826V15h2.148v7.97c0 4.32.088 5.16.297 5.74h-1.71zm19.136.29h-1.935l-3.462-11.219h-.088L178.511 29h-1.875L172 15h2.172l3.4 11.04h.088L181.093 15h1.935l3.46 11.07h.087L189.918 15H192zm7.827-6.621c0 2.547 1.501 4.81 4.531 4.81 1.155 0 2.426-.453 3.233-.963l.635 1.415c-.982.792-2.713 1.359-4.3 1.359-4.274 0-6.352-3.423-6.352-7.242 0-3.875 2.252-6.758 5.543-6.758 3.52 0 5.457 2.743 5.457 6.9v.48h-8.747v-.001zm3.32-5.627c-2.023 0-3.294 1.753-3.294 3.874h6.439c0-1.865-1.068-3.874-3.146-3.874zm14.567.703a3.216 3.216 0 00-1.244-.232c-.772 0-2.047.694-2.877 1.646V29H207V15.348h1.66l.278 1.558C210.735 15.203 211.73 15 212.67 15c.581 0 1.081.231 1.329.405l-.86 2.05z" fill="#474747"/><mask id="b" fill="#fff"><use xlink:href="#a"/></mask><use fill="#007AC3" xlink:href="#a"/><path fill="#85BC20" mask="url(#b)" d="M5 5h24v24H5z"/><path fill="#A6D1EA" mask="url(#b)" d="M0 13h34v8H0z"/><path fill="#409BD2" mask="url(#b)" d="M13 13h21v8H13z"/><path fill="#A6D1EA" mask="url(#b)" d="M13 0h8v34h-8z"/><path fill="#409BD2" mask="url(#b)" d="M13 13h8v21h-8z"/><path fill="#A4CD58" mask="url(#b)" d="M13 13h16v16H13z"/><path fill="#D4E8B1" mask="url(#b)" d="M5 5h16v16H5z"/><path fill="#409BD2" mask="url(#b)" d="M0 0h13v13H0z"/><path fill="#E5202E" mask="url(#b)" d="M13 13h8v8h-8z"/><path fill="#A4CD58" mask="url(#b)" d="M5 5h8v8H5z"/><path fill="#85BC20" mask="url(#b)" d="M21 21h8v8h-8z"/><g fill="#474747"><path d="M31.25 31h.645c.131 0 .246.015.33.047.272.076.404.274.404.501 0 .322-.252.488-.488.542v.01c.141.067.361.463.609.9h-.484c-.272-.475-.434-.789-.524-.796h-.071V33h-.421v-2zm.522.884c.216 0 .406-.082.406-.288 0-.123-.055-.216-.167-.244a.577.577 0 00-.229-.03h-.111v.562h.1z"/><path d="M34 32a2 2 0 11-4 0 2 2 0 014 0zm-2.001-1.579a1.579 1.579 0 100 3.158 1.579 1.579 0 000-3.158z"/></g></g></svg>